Normalized EMG Linear Envelopes
nRows=177
nColumns=4

endheader
time	 med_gas_r	  soleus_r	 tib_ant_r	
3.93725	  0.118851	  0.167488	  0.009456	
3.99974	  0.116444	  0.171711	  0.009574	
4.06224	  0.111897	  0.172879	  0.009607	
4.12474	  0.109581	  0.175395	  0.009715	
4.18723	  0.108763	  0.175649	  0.009899	
4.24973	  0.110655	  0.172631	  0.010158	
4.31222	  0.117877	  0.173007	  0.010464	
4.37472	  0.129116	  0.169697	  0.010752	
4.43722	  0.144840	  0.171525	  0.010931	
4.49971	  0.152996	  0.172270	  0.010982	
4.56221	  0.145368	  0.171324	  0.011042	
4.6247	  0.131521	  0.173530	  0.011021	
4.6872	  0.118623	  0.172785	  0.010792	
4.7497	  0.113089	  0.176820	  0.010610	
4.81219	  0.109619	  0.177482	  0.010519	
4.87469	  0.108485	  0.173720	  0.010418	
4.93718	  0.112850	  0.175831	  0.010403	
4.99968	  0.117297	  0.175497	  0.010364	
5.06218	  0.122750	  0.176948	  0.010240	
5.12467	  0.126093	  0.180525	  0.010191	
5.18717	  0.127731	  0.184169	  0.010099	
5.24966	  0.131269	  0.190133	  0.009841	
5.31216	  0.134188	  0.187585	  0.009678	
5.37466	  0.138245	  0.186231	  0.009594	
5.43715	  0.138102	  0.183228	  0.009410	
5.49965	  0.133266	  0.183452	  0.009263	
5.56214	  0.125792	  0.189016	  0.009438	
5.62464	  0.120530	  0.200432	  0.010325	
5.68714	  0.122739	  0.211608	  0.012690	
5.74963	  0.135834	  0.221714	  0.017473	
5.81213	  0.155532	  0.232495	  0.025342	
5.87462	  0.173925	  0.251020	  0.036218	
5.93712	  0.187007	  0.271099	  0.047335	
5.99962	  0.195380	  0.287222	  0.051052	
6.06211	  0.196778	  0.302389	  0.048263	
6.12461	  0.199306	  0.334578	  0.048993	
6.1871	  0.202693	  0.377487	  0.056250	
6.2496	  0.210032	  0.427654	  0.065860	
6.3121	  0.216862	  0.477570	  0.077046	
6.37459	  0.227886	  0.511348	  0.092328	
6.43709	  0.247437	  0.532982	  0.108883	
6.49958	  0.276126	  0.537328	  0.130557	
6.56208	  0.308204	  0.544279	  0.168143	
6.62458	  0.330918	  0.561413	  0.216562	
6.68707	  0.361077	  0.592365	  0.267869	
6.74957	  0.401188	  0.629980	  0.308338	
6.81206	  0.438707	  0.667334	  0.334820	
6.87456	  0.459091	  0.703903	  0.367355	
6.93706	  0.462067	  0.730295	  0.414629	
6.99955	  0.476929	  0.751925	  0.459497	
7.06205	  0.511151	  0.777330	  0.475999	
7.12454	  0.548806	  0.796968	  0.480523	
7.18704	  0.577830	  0.814366	  0.488373	
7.24954	  0.602941	  0.834026	  0.513609	
7.31203	  0.617693	  0.860933	  0.534562	
7.37453	  0.611373	  0.888099	  0.544980	
7.43702	  0.600984	  0.906108	  0.537307	
7.49952	  0.598753	  0.931719	  0.521162	
7.56202	  0.594754	  0.954123	  0.534372	
7.62451	  0.592953	  0.985386	  0.581058	
7.68701	  0.593533	  0.999481	  0.644382	
7.7495	  0.571129	  0.968225	  0.690166	
7.812	  0.540388	  0.909353	  0.698382	
7.8745	  0.536180	  0.858883	  0.686505	
7.93699	  0.529857	  0.821613	  0.660242	
7.99949	  0.513826	  0.797340	  0.641428	
8.06198	  0.532535	  0.805414	  0.645999	
8.12448	  0.548427	  0.829920	  0.673946	
8.18698	  0.525080	  0.843435	  0.718598	
8.24947	  0.524335	  0.829526	  0.771504	
8.31197	  0.529395	  0.789832	  0.817678	
8.37446	  0.508325	  0.743819	  0.830757	
8.43696	  0.507415	  0.720117	  0.792265	
8.49946	  0.520992	  0.731423	  0.729350	
8.56195	  0.518883	  0.771644	  0.671434	
8.62445	  0.486658	  0.824363	  0.635266	
8.68694	  0.456486	  0.863670	  0.622478	
8.74944	  0.444095	  0.859060	  0.631596	
8.81194	  0.475123	  0.823939	  0.627371	
8.87443	  0.512497	  0.803078	  0.603338	
8.93693	  0.518739	  0.816694	  0.569756	
8.99942	  0.548915	  0.868614	  0.555642	
9.06192	  0.595522	  0.938450	  0.580471	
9.12442	  0.625720	  0.969104	  0.628138	
9.18691	  0.626279	  0.962165	  0.665605	
9.24941	  0.624247	  0.930544	  0.691329	
9.3119	  0.627130	  0.901056	  0.715921	
9.3744	  0.619219	  0.870532	  0.727613	
9.4369	  0.616527	  0.849027	  0.706985	
9.49939	  0.628971	  0.827562	  0.670148	
9.56189	  0.626441	  0.824632	  0.653524	
9.62438	  0.638069	  0.845541	  0.673913	
9.68688	  0.657361	  0.880081	  0.710467	
9.74938	  0.656386	  0.896228	  0.739289	
9.81187	  0.662275	  0.902337	  0.753638	
9.87437	  0.652942	  0.914172	  0.758888	
9.93686	  0.633516	  0.917918	  0.756022	
9.99936	  0.641557	  0.897281	  0.760393	
10.0619	  0.639733	  0.871761	  0.790833	
10.1244	  0.630391	  0.865357	  0.826471	
10.1868	  0.616754	  0.866480	  0.861580	
10.2493	  0.571698	  0.863339	  0.874308	
10.3118	  0.535542	  0.868886	  0.859869	
10.3743	  0.527018	  0.881556	  0.833727	
10.4368	  0.504610	  0.886059	  0.807541	
10.4993	  0.467529	  0.865029	  0.785528	
10.5618	  0.477175	  0.837939	  0.770300	
10.6243	  0.533656	  0.831733	  0.763054	
10.6868	  0.608888	  0.844152	  0.775312	
10.7493	  0.658630	  0.876768	  0.803880	
10.8118	  0.688671	  0.911325	  0.844038	
10.8743	  0.702490	  0.912735	  0.872030	
10.9368	  0.690429	  0.877082	  0.868470	
10.9993	  0.668794	  0.840477	  0.831548	
11.0618	  0.654530	  0.820341	  0.777473	
11.1243	  0.603464	  0.815120	  0.736600	
11.1868	  0.500322	  0.812113	  0.720668	
11.2493	  0.368765	  0.783659	  0.710400	
11.3118	  0.251471	  0.707237	  0.689376	
11.3743	  0.170293	  0.583661	  0.645808	
11.4368	  0.137681	  0.455866	  0.585047	
11.4993	  0.141862	  0.367178	  0.538455	
11.5618	  0.153621	  0.317507	  0.522534	
11.6243	  0.153606	  0.293638	  0.521719	
11.6868	  0.145837	  0.288916	  0.527114	
11.7492	  0.138011	  0.286689	  0.539151	
11.8117	  0.134042	  0.276427	  0.540173	
11.8742	  0.134779	  0.258847	  0.505327	
11.9367	  0.135895	  0.239453	  0.431124	
11.9992	  0.135564	  0.225262	  0.353579	
12.0617	  0.131844	  0.220336	  0.285653	
12.1242	  0.123612	  0.224484	  0.232200	
12.1867	  0.115416	  0.234196	  0.195025	
12.2492	  0.110718	  0.248866	  0.166415	
12.3117	  0.106201	  0.254898	  0.141621	
12.3742	  0.102573	  0.247415	  0.127207	
12.4367	  0.101954	  0.231807	  0.121109	
12.4992	  0.102351	  0.224208	  0.118910	
12.5617	  0.100125	  0.224992	  0.120090	
12.6242	  0.094705	  0.230834	  0.117413	
12.6867	  0.089467	  0.228491	  0.110669	
12.7492	  0.088739	  0.220685	  0.104254	
12.8117	  0.092737	  0.210095	  0.098892	
12.8742	  0.099730	  0.204260	  0.092285	
12.9367	  0.108150	  0.203859	  0.084184	
12.9992	  0.115477	  0.207383	  0.074496	
13.0617	  0.116375	  0.210239	  0.067553	
13.1242	  0.108505	  0.207637	  0.059867	
13.1867	  0.098338	  0.199197	  0.052345	
13.2492	  0.090196	  0.191312	  0.047335	
13.3116	  0.085692	  0.179325	  0.042846	
13.3741	  0.086342	  0.173579	  0.043343	
13.4366	  0.089718	  0.176551	  0.048409	
13.4991	  0.092851	  0.185695	  0.050819	
13.5616	  0.094292	  0.195070	  0.050069	
13.6241	  0.093992	  0.204147	  0.043489	
13.6866	  0.091645	  0.208247	  0.032325	
13.7491	  0.090135	  0.210297	  0.023234	
13.8116	  0.090999	  0.206302	  0.017883	
13.8741	  0.091724	  0.200269	  0.015374	
13.9366	  0.090896	  0.192932	  0.014317	
13.9991	  0.089071	  0.189680	  0.013523	
14.0616	  0.087552	  0.189039	  0.013059	
14.1241	  0.087945	  0.193889	  0.013297	
14.1866	  0.089102	  0.201652	  0.014185	
14.2491	  0.089445	  0.202520	  0.015261	
14.3116	  0.088691	  0.198386	  0.015700	
14.3741	  0.089268	  0.192659	  0.015304	
14.4366	  0.091242	  0.187107	  0.014575	
14.4991	  0.091943	  0.178174	  0.013807	
14.5616	  0.092282	  0.171968	  0.013127	
14.6241	  0.092860	  0.164972	  0.012628	
14.6866	  0.093230	  0.163843	  0.012277	
14.7491	  0.091739	  0.165112	  0.012244	
14.8116	  0.089082	  0.168161	  0.012379	
14.874	  0.086337	  0.173895	  0.012364	
14.9365	  0.086161	  0.174725	  0.012061	
